<svg width="150" height="49" viewBox="0 0 150 49" fill="none" xmlns="http://www.w3.org/2000/svg">
<path d="M149.861 10.4813C149.378 11.8691 148.554 12.9076 147.019 13.1672C146.208 13.322 145.368 13.1694 144.663 12.7392C143.959 12.3089 143.439 11.6317 143.206 10.8395C143.026 10.127 143.107 9.37357 143.436 8.71629C143.765 8.059 144.318 7.5416 144.996 7.25828C145.748 6.92086 146.597 6.86401 147.387 7.09803C148.178 7.33206 148.858 7.84148 149.306 8.53408C149.498 8.84743 149.668 9.16974 149.852 9.48757L149.861 10.4813Z" fill="#FF9700"/>
<path d="M58.7269 5.01548C60.5574 6.26889 62.3073 7.32534 63.8647 8.62352C64.4018 9.07117 64.63 10.1008 64.6748 10.8618C64.7867 12.8627 64.7106 14.8906 64.7106 16.8871V18.3599C65.364 18.051 65.7757 17.8809 66.1651 17.675C74.4313 13.1985 85.0516 16.9856 88.0949 25.6476C90.1268 31.467 88.4082 37.828 82.3887 41.8837C75.2906 46.6736 63.9721 44.883 59.7473 35.8271C59.0812 34.4257 58.7125 32.9015 58.6642 31.3506C58.5479 22.9348 58.5837 14.5146 58.5747 6.09879C58.6049 5.73509 58.6557 5.37341 58.7269 5.01548ZM73.6436 21.6724C67.651 21.6724 63.4888 26.8741 65.0015 32.4607C65.9413 35.9211 69.2487 38.3205 73.4601 38.589C79.3767 38.9651 84.067 33.2173 82.3215 27.6843C81.1848 24.1166 77.6805 21.6724 73.6436 21.6724Z" fill="#083C87"/>
<path d="M20.3813 22.6394V42.8686C19.9024 42.8955 19.4593 42.9447 19.0386 42.9447C15.4583 42.9447 11.8779 42.9761 8.32437 42.9447C7.40497 42.91 6.50749 43.2306 5.81811 43.84C3.99212 45.3665 2.10794 46.8303 0 48.5V22.6394H20.3813Z" fill="#083C87"/>
<path d="M22.0417 20.9965V0.512189C24.1854 0.512189 26.271 0.512189 28.361 0.512189C30.1207 0.470742 31.8812 0.53502 33.6331 0.704677C36.1377 1.01482 38.4343 2.25514 40.0674 4.17966C41.7005 6.10418 42.5509 8.57232 42.4498 11.0946C42.3808 13.6631 41.3408 16.11 39.5393 17.9418C37.7378 19.7735 35.309 20.854 32.7425 20.9652C29.2293 21.1308 25.7026 20.9965 22.0417 20.9965Z" fill="#083C87"/>
<path d="M28.2581 22.5678C30.2676 22.6618 32.286 22.5678 34.2731 22.8901C39.0619 23.7228 42.5438 28.3335 42.2932 33.3114C42.0649 37.7878 38.5875 41.9778 33.839 42.5419C30.2586 42.9626 26.638 42.7746 23.0307 42.797C22.7756 42.797 22.4937 42.3494 22.2699 42.0405C22.1894 41.9331 22.2699 41.7182 22.2431 41.5481C22.1849 35.7287 22.1491 29.9092 22.0417 24.0898C22.0417 22.9931 22.346 22.5947 23.4693 22.6574C25.0581 22.7379 26.6604 22.6574 28.2536 22.6574L28.2581 22.5678Z" fill="#FF9700"/>
<path d="M10.164 21.0055C7.26393 21.0055 4.3683 21.0055 1.4682 21.0055C0.125558 21.0055 -0.0534602 20.7727 0.165838 19.4387C1.79938 9.46513 8.6558 2.60717 18.7301 0.874772C20.1622 0.628566 20.386 0.794196 20.386 2.21771C20.386 7.99684 20.3591 13.776 20.4128 19.5506C20.4128 20.7324 20.0011 21.0637 18.8733 21.0413C15.9598 20.9652 13.0641 21.0055 10.164 21.0055Z" fill="#FF9700"/>
<path d="M121.46 26.6728L112.388 34.3723C112.101 34.6185 111.819 34.8692 111.529 35.1109C111.162 35.3636 110.89 35.7322 110.758 36.1575C110.626 36.5829 110.64 37.0404 110.799 37.4566C110.942 37.9029 111.233 38.2873 111.623 38.5467C112.014 38.8062 112.48 38.9253 112.947 38.8846H130.764V44.5518C130.455 44.5831 130.214 44.6279 129.972 44.6279C124.257 44.6279 118.542 44.6548 112.826 44.6279C111.219 44.6567 109.642 44.1826 108.316 43.2718C106.991 42.3609 105.983 41.0587 105.433 39.5471C104.265 36.4136 105.07 33.1905 107.671 30.8851C109.112 29.6048 110.589 28.3604 112.079 27.1338C112.38 26.8614 112.759 26.6894 113.162 26.6414C115.557 26.5967 117.955 26.6146 120.35 26.6146C120.596 26.619 120.838 26.6414 121.46 26.6728Z" fill="#083C87"/>
<path d="M123.245 33.759L127.748 29.9227C129.186 28.6991 130.625 27.48 132.066 26.2654C132.962 25.5312 133.44 24.6583 133.024 23.5079C132.608 22.3574 131.632 21.9501 130.424 21.9545C124.964 21.9545 119.499 21.9277 114.039 21.9859C112.871 21.9859 112.442 21.6322 112.531 20.4818C112.607 19.4835 112.562 18.4718 112.531 17.4691C112.531 16.7484 112.786 16.3992 113.56 16.3992C119.571 16.3992 125.582 16.2739 131.583 16.4709C134.832 16.5783 137.195 18.4853 138.256 21.583C139.317 24.6807 138.748 27.6352 136.269 29.9853C135.083 31.1134 133.803 32.1385 132.541 33.1815C132.242 33.4734 131.861 33.6657 131.449 33.7321C128.826 33.759 126.199 33.759 123.245 33.759Z" fill="#FF9700"/>
<path d="M143.188 17.1602C145.157 18.9911 147.216 20.8444 149.158 22.7648C149.463 23.0602 149.53 23.7004 149.534 24.1793C149.561 30.7553 149.534 37.3312 149.566 43.9072C149.566 44.7667 149.266 45.1203 148.389 45.089C147.001 45.0442 145.614 45.0576 144.226 45.089C143.488 45.089 143.161 44.8428 143.166 44.0683C143.166 35.1154 143.166 26.1505 143.166 17.1737C143.188 17.102 143.26 17.0349 143.188 17.1602Z" fill="#083C87"/>
<path d="M93.7074 17.2587C95.6095 19.0761 97.4847 20.804 99.2659 22.6304C99.6206 23.0894 99.8042 23.6577 99.7851 24.2375C99.8209 30.5538 99.7851 36.8746 99.8209 43.1909C99.8209 44.1309 99.4763 44.4577 98.5633 44.4264C97.3504 44.3771 96.1286 44.3637 94.9158 44.4264C93.8327 44.4846 93.694 43.9205 93.6984 43.0297C93.7208 37.0491 93.6984 31.0641 93.6984 25.0791L93.7074 17.2587Z" fill="#083C87"/>
<path d="M96.7908 13.4894C94.9469 13.4894 93.5998 12.2584 93.5774 10.526C93.555 8.70409 94.8798 7.43725 96.7997 7.45067C98.6168 7.45067 99.9818 8.75781 99.9818 10.4723C99.9762 10.8818 99.8885 11.286 99.7239 11.6609C99.5594 12.0359 99.3213 12.3741 99.0238 12.6554C98.7262 12.9367 98.3753 13.1555 97.9918 13.2987C97.6082 13.442 97.1998 13.5068 96.7908 13.4894Z" fill="#FF9700"/>
</svg>
