<svg width="152" height="45" viewBox="0 0 152 45" fill="none" xmlns="http://www.w3.org/2000/svg">
<rect x="0.6875" y="0.5625" width="150.75" height="43.875" rx="5.0625" fill="black"/>
<rect x="0.6875" y="0.5625" width="150.75" height="43.875" rx="5.0625" stroke="#A6A6A6" stroke-width="1.125"/>
<path d="M76.778 24.4697C74.132 24.4697 71.9754 26.4824 71.9754 29.2544C71.9754 32.0095 74.132 34.039 76.778 34.039C79.4251 34.039 81.5817 32.0095 81.5817 29.2544C81.5806 26.4824 79.424 24.4697 76.778 24.4697ZM76.778 32.1557C75.3279 32.1557 74.078 30.9599 74.078 29.2555C74.078 27.5331 75.329 26.3552 76.778 26.3552C78.2281 26.3552 79.478 27.5331 79.478 29.2555C79.478 30.9587 78.2281 32.1557 76.778 32.1557ZM66.2997 24.4697C63.6537 24.4697 61.4971 26.4824 61.4971 29.2544C61.4971 32.0095 63.6537 34.039 66.2997 34.039C68.9469 34.039 71.1035 32.0095 71.1035 29.2544C71.1035 26.4824 68.9469 24.4697 66.2997 24.4697ZM66.2997 32.1557C64.8496 32.1557 63.5997 30.9599 63.5997 29.2555C63.5997 27.5331 64.8507 26.3552 66.2997 26.3552C67.7499 26.3552 68.9997 27.5331 68.9997 29.2555C69.0009 30.9587 67.7499 32.1557 66.2997 32.1557ZM53.837 25.939V27.9685H58.6947C58.5496 29.1104 58.1694 29.944 57.5889 30.5234C56.8824 31.2299 55.7765 32.0095 53.837 32.0095C50.8467 32.0095 48.509 29.5986 48.509 26.6084C48.509 23.6181 50.8467 21.2072 53.837 21.2072C55.4502 21.2072 56.6281 21.8417 57.4977 22.6574L58.9299 21.2252C57.7149 20.0654 56.1027 19.1777 53.837 19.1777C49.7409 19.1777 46.2972 22.5122 46.2972 26.6084C46.2972 30.7045 49.7409 34.039 53.837 34.039C56.0476 34.039 57.716 33.3134 59.0199 31.9544C60.3609 30.6134 60.7782 28.7279 60.7782 27.2057C60.7782 26.7355 60.7422 26.3001 60.6691 25.9379H53.837V25.939ZM104.808 27.5151C104.41 26.4464 103.195 24.4697 100.712 24.4697C98.2475 24.4697 96.1989 26.4092 96.1989 29.2544C96.1989 31.9364 98.2295 34.039 100.947 34.039C103.14 34.039 104.409 32.698 104.936 31.9184L103.304 30.8305C102.761 31.6281 102.017 32.1535 100.947 32.1535C99.8787 32.1535 99.1171 31.6641 98.6277 30.7034L105.026 28.0574L104.808 27.5151ZM98.2835 29.1104C98.2295 27.2609 99.7156 26.3192 100.785 26.3192C101.619 26.3192 102.326 26.7366 102.562 27.334L98.2835 29.1104ZM93.0826 33.7499H95.1841V19.6862H93.0826V33.7499ZM89.6379 25.5396H89.5659C89.0945 24.9771 88.1877 24.4697 87.047 24.4697C84.6541 24.4697 82.4615 26.5724 82.4615 29.2735C82.4615 31.9555 84.6541 34.0401 87.047 34.0401C88.1889 34.0401 89.0945 33.5327 89.5659 32.9534H89.6379V33.6419C89.6379 35.4722 88.6591 36.451 87.083 36.451C85.796 36.451 84.9984 35.5274 84.6721 34.7477L82.8417 35.5094C83.3671 36.7772 84.7621 38.3365 87.083 38.3365C89.5479 38.3365 91.6325 36.8864 91.6325 33.3516V24.7611H89.639V25.5396H89.6379ZM87.2281 32.1557C85.778 32.1557 84.5641 30.9407 84.5641 29.2735C84.5641 27.5871 85.778 26.3552 87.2281 26.3552C88.6591 26.3552 89.783 27.5871 89.783 29.2735C89.783 30.9407 88.6591 32.1557 87.2281 32.1557ZM114.657 19.6862H109.627V33.7499H111.725V28.4219H114.656C116.982 28.4219 119.27 26.7377 119.27 24.0546C119.27 21.3715 116.983 19.6862 114.657 19.6862ZM114.711 26.4644H111.725V21.6437H114.711C116.28 21.6437 117.171 22.9431 117.171 24.0546C117.171 25.1436 116.28 26.4644 114.711 26.4644ZM127.684 24.445C126.164 24.445 124.59 25.1144 123.939 26.5982L125.802 27.3756C126.2 26.5982 126.943 26.344 127.72 26.344C128.806 26.344 129.909 26.9954 129.927 28.153V28.2981C129.547 28.081 128.733 27.7559 127.738 27.7559C125.73 27.7559 123.685 28.8595 123.685 30.9216C123.685 32.8037 125.332 34.0154 127.177 34.0154C128.588 34.0154 129.366 33.382 129.854 32.6395H129.926V33.7251H131.954V28.333C131.955 25.8377 130.089 24.445 127.684 24.445ZM127.43 32.1524C126.744 32.1524 125.784 31.8081 125.784 30.9576C125.784 29.872 126.979 29.4557 128.01 29.4557C128.932 29.4557 129.367 29.6549 129.927 29.926C129.764 31.2299 128.643 32.1524 127.43 32.1524ZM139.336 24.7521L136.929 30.8496H136.857L134.36 24.7521H132.099L135.844 33.274L133.709 38.0147H135.898L141.67 24.7521H139.336ZM120.429 33.7499H122.527V19.6862H120.429V33.7499Z" fill="white"/>
<path d="M53.4702 11.5238C53.4702 12.4666 53.1912 13.217 52.6321 13.7772C51.9976 14.4432 51.1696 14.7762 50.1526 14.7762C49.1784 14.7762 48.3492 14.4387 47.6686 13.7637C46.9869 13.0876 46.646 12.2506 46.646 11.2516C46.646 10.2515 46.9869 9.41445 47.6686 8.73945C48.3492 8.06333 49.1784 7.72583 50.1526 7.72583C50.6364 7.72583 51.0987 7.82033 51.5375 8.00821C51.9774 8.19721 52.3295 8.44808 52.5927 8.76196L51.9999 9.35596C51.5532 8.82158 50.9379 8.55496 50.1515 8.55496C49.4405 8.55496 48.8262 8.80471 48.3076 9.30421C47.789 9.80371 47.5302 10.4528 47.5302 11.2505C47.5302 12.0481 47.789 12.6972 48.3076 13.1967C48.8262 13.6962 49.4405 13.946 50.1515 13.946C50.9052 13.946 51.5341 13.6951 52.037 13.1922C52.3632 12.8648 52.5522 12.4092 52.6029 11.8253H50.1515V11.0142H53.4219C53.4556 11.1908 53.4702 11.3607 53.4702 11.5238Z" fill="white"/>
<path d="M58.6566 8.70464H55.5831V10.8444H58.3551V11.6555H55.5831V13.7953H58.6566V14.6255H54.7157V7.87552H58.6566V8.70464Z" fill="white"/>
<path d="M62.3138 14.6255H61.4465V8.70464H59.561V7.87552H64.1994V8.70464H62.3138V14.6255Z" fill="white"/>
<path d="M67.5552 14.6255V7.87552H68.4225V14.6255H67.5552Z" fill="white"/>
<path d="M72.2691 14.6255H71.4017V8.70464H69.5162V7.87552H74.1546V8.70464H72.2691V14.6255Z" fill="white"/>
<path d="M82.935 13.7536C82.2712 14.4354 81.4466 14.7763 80.46 14.7763C79.4734 14.7763 78.6487 14.4354 77.9861 13.7536C77.3224 13.0719 76.9916 12.2371 76.9916 11.2505C76.9916 10.2639 77.3224 9.42913 77.9861 8.74738C78.6487 8.06563 79.4734 7.72363 80.46 7.72363C81.441 7.72363 82.2645 8.06676 82.9305 8.75188C83.5965 9.43701 83.9295 10.2695 83.9295 11.2505C83.9295 12.2371 83.5976 13.0719 82.935 13.7536ZM78.6262 13.1878C79.1257 13.694 79.7366 13.946 80.46 13.946C81.1834 13.946 81.7954 13.6929 82.2937 13.1878C82.7932 12.6815 83.0441 12.0358 83.0441 11.2505C83.0441 10.4653 82.7932 9.81951 82.2937 9.31326C81.7954 8.80701 81.1834 8.55501 80.46 8.55501C79.7366 8.55501 79.1257 8.80813 78.6262 9.31326C78.1279 9.81951 77.877 10.4653 77.877 11.2505C77.877 12.0358 78.1279 12.6815 78.6262 13.1878Z" fill="white"/>
<path d="M85.1468 14.6255V7.87552H86.202L89.4825 13.1259H89.5196L89.4825 11.8254V7.87552H90.3499V14.6255H89.4443L86.0119 9.11977H85.9748L86.0119 10.4203V14.6255H85.1468Z" fill="white"/>
<path d="M53.4702 11.5238C53.4702 12.4666 53.1912 13.217 52.6321 13.7772C51.9976 14.4432 51.1696 14.7762 50.1526 14.7762C49.1784 14.7762 48.3492 14.4387 47.6686 13.7637C46.9869 13.0876 46.646 12.2506 46.646 11.2516C46.646 10.2515 46.9869 9.41445 47.6686 8.73945C48.3492 8.06333 49.1784 7.72583 50.1526 7.72583C50.6364 7.72583 51.0987 7.82033 51.5375 8.00821C51.9774 8.19721 52.3295 8.44808 52.5927 8.76196L51.9999 9.35596C51.5532 8.82158 50.9379 8.55496 50.1515 8.55496C49.4405 8.55496 48.8262 8.80471 48.3076 9.30421C47.789 9.80371 47.5302 10.4528 47.5302 11.2505C47.5302 12.0481 47.789 12.6972 48.3076 13.1967C48.8262 13.6962 49.4405 13.946 50.1515 13.946C50.9052 13.946 51.5341 13.6951 52.037 13.1922C52.3632 12.8648 52.5522 12.4092 52.6029 11.8253H50.1515V11.0142H53.4219C53.4556 11.1908 53.4702 11.3607 53.4702 11.5238Z" stroke="white" stroke-width="0.225" stroke-miterlimit="10"/>
<path d="M58.6566 8.70464H55.5831V10.8444H58.3551V11.6555H55.5831V13.7953H58.6566V14.6255H54.7157V7.87552H58.6566V8.70464Z" stroke="white" stroke-width="0.225" stroke-miterlimit="10"/>
<path d="M62.3138 14.6255H61.4465V8.70464H59.561V7.87552H64.1994V8.70464H62.3138V14.6255Z" stroke="white" stroke-width="0.225" stroke-miterlimit="10"/>
<path d="M67.5552 14.6255V7.87552H68.4225V14.6255H67.5552Z" stroke="white" stroke-width="0.225" stroke-miterlimit="10"/>
<path d="M72.2691 14.6255H71.4017V8.70464H69.5162V7.87552H74.1546V8.70464H72.2691V14.6255Z" stroke="white" stroke-width="0.225" stroke-miterlimit="10"/>
<path d="M82.935 13.7536C82.2712 14.4354 81.4466 14.7763 80.46 14.7763C79.4734 14.7763 78.6487 14.4354 77.9861 13.7536C77.3224 13.0719 76.9916 12.2371 76.9916 11.2505C76.9916 10.2639 77.3224 9.42913 77.9861 8.74738C78.6487 8.06563 79.4734 7.72363 80.46 7.72363C81.441 7.72363 82.2645 8.06676 82.9305 8.75188C83.5965 9.43701 83.9295 10.2695 83.9295 11.2505C83.9295 12.2371 83.5976 13.0719 82.935 13.7536ZM78.6262 13.1878C79.1257 13.694 79.7366 13.946 80.46 13.946C81.1834 13.946 81.7954 13.6929 82.2937 13.1878C82.7932 12.6815 83.0441 12.0358 83.0441 11.2505C83.0441 10.4653 82.7932 9.81951 82.2937 9.31326C81.7954 8.80701 81.1834 8.55501 80.46 8.55501C79.7366 8.55501 79.1257 8.80813 78.6262 9.31326C78.1279 9.81951 77.877 10.4653 77.877 11.2505C77.877 12.0358 78.1279 12.6815 78.6262 13.1878Z" stroke="white" stroke-width="0.225" stroke-miterlimit="10"/>
<path d="M85.1468 14.6255V7.87552H86.202L89.4825 13.1259H89.5196L89.4825 11.8254V7.87552H90.3499V14.6255H89.4443L86.0119 9.11977H85.9748L86.0119 10.4203V14.6255H85.1468Z" stroke="white" stroke-width="0.225" stroke-miterlimit="10"/>
<g filter="url(#filter0_ii_1_14485)">
<path d="M11.8655 8.48056C11.5381 8.82706 11.3446 9.36481 11.3446 10.0612V34.9417C11.3446 35.6392 11.5381 36.1758 11.8655 36.5223L11.9487 36.6033L25.8864 22.6657V22.5014V22.3372L11.9487 8.39844L11.8655 8.48056Z" fill="url(#paint0_linear_1_14485)"/>
<path d="M30.5316 27.313L25.8865 22.6657V22.5014V22.3372L30.5327 17.6909L30.6374 17.7505L36.142 20.878C37.7136 21.7713 37.7136 23.2327 36.142 24.127L30.6374 27.2545L30.5316 27.313Z" fill="url(#paint1_linear_1_14485)"/>
<g filter="url(#filter1_i_1_14485)">
<path d="M30.6372 27.253L25.8852 22.501L11.8655 36.5219C12.383 37.0709 13.2391 37.1384 14.2032 36.5916L30.6372 27.253Z" fill="url(#paint2_linear_1_14485)"/>
</g>
<path d="M30.6372 17.7493L14.2032 8.41178C13.2391 7.8639 12.383 7.93253 11.8655 8.48153L25.8864 22.5024L30.6372 17.7493Z" fill="url(#paint3_linear_1_14485)"/>
</g>
<defs>
<filter id="filter0_ii_1_14485" x="11.3446" y="8.03369" width="25.9761" height="28.9355" filterUnits="userSpaceOnUse" color-interpolation-filters="sRGB">
<feFlood flood-opacity="0" result="BackgroundImageFix"/>
<feBlend mode="normal" in="SourceGraphic" in2="BackgroundImageFix" result="shape"/>
<feColorMatrix in="SourceAlpha" type="matrix" values="0 0 0 0 0 0 0 0 0 0 0 0 0 0 0 0 0 0 127 0" result="hardAlpha"/>
<feOffset dy="-0.16875"/>
<feComposite in2="hardAlpha" operator="arithmetic" k2="-1" k3="1"/>
<feColorMatrix type="matrix" values="0 0 0 0 0 0 0 0 0 0 0 0 0 0 0 0 0 0 0.12 0"/>
<feBlend mode="normal" in2="shape" result="effect1_innerShadow_1_14485"/>
<feColorMatrix in="SourceAlpha" type="matrix" values="0 0 0 0 0 0 0 0 0 0 0 0 0 0 0 0 0 0 127 0" result="hardAlpha"/>
<feOffset dy="0.16875"/>
<feComposite in2="hardAlpha" operator="arithmetic" k2="-1" k3="1"/>
<feColorMatrix type="matrix" values="0 0 0 0 1 0 0 0 0 1 0 0 0 0 1 0 0 0 0.25 0"/>
<feBlend mode="normal" in2="effect1_innerShadow_1_14485" result="effect2_innerShadow_1_14485"/>
</filter>
<filter id="filter1_i_1_14485" x="11.8655" y="22.501" width="18.7717" height="14.4683" filterUnits="userSpaceOnUse" color-interpolation-filters="sRGB">
<feFlood flood-opacity="0" result="BackgroundImageFix"/>
<feBlend mode="normal" in="SourceGraphic" in2="BackgroundImageFix" result="shape"/>
<feColorMatrix in="SourceAlpha" type="matrix" values="0 0 0 0 0 0 0 0 0 0 0 0 0 0 0 0 0 0 127 0" result="hardAlpha"/>
<feOffset dy="-0.16875"/>
<feComposite in2="hardAlpha" operator="arithmetic" k2="-1" k3="1"/>
<feColorMatrix type="matrix" values="0 0 0 0 0 0 0 0 0 0 0 0 0 0 0 0 0 0 0.08 0"/>
<feBlend mode="normal" in2="shape" result="effect1_innerShadow_1_14485"/>
</filter>
<linearGradient id="paint0_linear_1_14485" x1="24.6509" y1="9.79794" x2="5.77113" y2="28.6777" gradientUnits="userSpaceOnUse">
<stop stop-color="#00A0FF"/>
<stop offset="0.0066" stop-color="#00A1FF"/>
<stop offset="0.2601" stop-color="#00BEFF"/>
<stop offset="0.5122" stop-color="#00D2FF"/>
<stop offset="0.7604" stop-color="#00DFFF"/>
<stop offset="1" stop-color="#00E3FF"/>
</linearGradient>
<linearGradient id="paint1_linear_1_14485" x1="38.1878" y1="22.5014" x2="10.9674" y2="22.5014" gradientUnits="userSpaceOnUse">
<stop stop-color="#FFE000"/>
<stop offset="0.4087" stop-color="#FFBD00"/>
<stop offset="0.7754" stop-color="#FFA500"/>
<stop offset="1" stop-color="#FF9C00"/>
</linearGradient>
<linearGradient id="paint2_linear_1_14485" x1="28.0566" y1="25.0816" x2="2.45328" y2="50.6849" gradientUnits="userSpaceOnUse">
<stop stop-color="#FF3A44"/>
<stop offset="1" stop-color="#C31162"/>
</linearGradient>
<linearGradient id="paint3_linear_1_14485" x1="8.33455" y1="0.199052" x2="19.7671" y2="11.6316" gradientUnits="userSpaceOnUse">
<stop stop-color="#32A071"/>
<stop offset="0.0685" stop-color="#2DA771"/>
<stop offset="0.4762" stop-color="#15CF74"/>
<stop offset="0.8009" stop-color="#06E775"/>
<stop offset="1" stop-color="#00F076"/>
</linearGradient>
</defs>
</svg>
